<svg width="23" height="24" viewBox="0 0 23 24" fill="none" xmlns="http://www.w3.org/2000/svg">
<path d="M12.7292 1.30566V3.95019C12.7292 4.8542 12.3275 5.28906 11.491 5.28906C10.6546 5.28906 10.2529 4.8542 10.2529 3.95019V1.30566C10.2529 0.434864 10.6546 0 11.491 0C12.3275 0 12.7292 0.434864 12.7292 1.30566ZM15.2397 4.78672L16.7799 2.61133C17.2822 1.94189 17.9184 1.80801 18.5535 2.27607C19.1886 2.74414 19.2561 3.34717 18.7549 4.08408L17.2147 6.22627C16.7124 6.96318 16.1105 7.02959 15.4411 6.56152C14.8049 6.09238 14.7385 5.52363 15.2397 4.78779V4.78672ZM6.20223 2.64453L7.77559 4.78672C8.27791 5.52363 8.21043 6.09238 7.54103 6.56045C6.90483 7.06279 6.3029 6.96211 5.80058 6.2252L4.22722 4.08301C3.7249 3.3461 3.79238 2.77735 4.46178 2.30928C5.09798 1.80694 5.69991 1.90762 6.20223 2.64453ZM11.491 6.79502C14.37 6.79502 16.7124 9.13857 16.7124 12.0166C16.7124 14.8614 14.3689 17.1718 11.491 17.1718C8.61315 17.1718 6.2697 14.8625 6.2697 12.0166C6.2697 9.1375 8.61315 6.79502 11.491 6.79502ZM1.71776 7.53193L4.26149 8.33525C5.09798 8.60303 5.40001 9.10537 5.13225 9.90869C4.89769 10.712 4.32897 10.9466 3.45821 10.6788L0.980883 9.87549C0.144397 9.60771 -0.157638 9.07217 0.0769211 8.26885C0.344682 7.49873 0.881276 7.26416 1.71776 7.53193ZM18.7538 8.33525L21.2643 7.53193C22.1351 7.26416 22.6706 7.49873 22.9041 8.26885C23.1719 9.07217 22.8709 9.60771 22.0001 9.84228L19.5228 10.6788C18.6863 10.9466 18.1508 10.712 17.883 9.90869C17.6485 9.10537 17.9162 8.60303 18.7538 8.33525ZM11.491 14.8957C13.0976 14.8957 14.4032 13.59 14.4032 12.0166C14.4032 10.41 13.0976 9.1043 11.491 9.1043C9.88448 9.1043 8.61208 10.41 8.61208 12.0166C8.61208 13.59 9.88448 14.8957 11.491 14.8957ZM0.980883 14.1256L3.49141 13.3223C4.3279 13.0545 4.89769 13.2548 5.13118 14.0592C5.39894 14.8625 5.09798 15.3648 4.26042 15.6326L1.71669 16.4691C0.880205 16.7369 0.344682 16.5023 0.0769211 15.699C-0.157638 14.8957 0.144397 14.3934 0.980883 14.1256ZM19.5239 13.3223L22.0344 14.1256C22.8709 14.3934 23.1729 14.8957 22.9052 15.699C22.6706 16.5023 22.1351 16.7369 21.2654 16.4691L18.7549 15.6326C17.8841 15.3648 17.6506 14.8625 17.8841 14.0592C18.1519 13.2559 18.6874 13.0545 19.5239 13.3223ZM4.22829 19.8827L5.80166 17.7737C6.30398 17.0368 6.9059 16.9372 7.5421 17.4385C8.21151 17.9076 8.27898 18.4764 7.77666 19.2122L6.2033 21.3212C5.70098 22.0581 5.09905 22.192 4.42965 21.7229C3.79345 21.2537 3.72704 20.6196 4.22829 19.8827ZM17.2147 17.7737L18.7549 19.8827C19.2572 20.6196 19.1897 21.2548 18.5535 21.7239C17.9173 22.1931 17.2811 22.0249 16.7799 21.3555L15.2397 19.2133C14.7374 18.4764 14.8049 17.9076 15.4411 17.4396C16.1105 16.9704 16.7135 17.0368 17.2147 17.7737ZM12.7292 20.0166V22.6611C12.7292 23.5651 12.3275 24 11.491 24C10.6546 24 10.2529 23.5651 10.2529 22.6611V20.0166C10.2529 19.1126 10.6546 18.6777 11.491 18.6777C12.3275 18.6777 12.7292 19.1126 12.7292 20.0166Z" fill="#D9D3F2"/>
</svg>
