<svg width="26" height="27" viewBox="0 0 26 27" fill="none" xmlns="http://www.w3.org/2000/svg">
<path fill-rule="evenodd" clip-rule="evenodd" d="M3.92311 11.7226C3.73254 6.28665 7.79253 1.71463 13.0008 1.5C18.2092 1.71463 22.2692 6.28665 22.0787 11.7226C22.0787 13.9804 24.4294 16.1798 24.4983 18.4428C24.4983 18.4748 24.4983 18.5067 24.4983 18.5388C24.5492 19.9886 23.4661 21.2078 22.077 21.2646H16.8334C16.8383 22.3755 16.4369 23.4466 15.7114 24.2595C15.0137 25.0502 14.0308 25.5 13.0008 25.5C11.9709 25.5 10.9881 25.0502 10.2904 24.2595C9.56475 23.4466 9.1635 22.3755 9.16837 21.2646H3.92311C2.53398 21.2078 1.45085 19.9886 1.50172 18.5388C1.50172 18.5067 1.50172 18.4748 1.50172 18.4428C1.57237 16.1867 3.92311 13.9821 3.92311 11.7226Z" stroke="#D9D3F2" stroke-width="3" stroke-linecap="round" stroke-linejoin="round"/>
</svg>
